# xmcd
#
# Track frame offsets: 
#        150
#        22610
#        36035
#        58015
#        76500
#        96185
#        115097
#        131072
#        151292
#        167952
#        184850
#        197637
#        214575
#        234372
#        246950
#        261795
#        285860
#        301460
#        314660
#
# Disc length: 4426 seconds
#
# Revision: 20
# Processed by: cddbd v1.5.2PL0 Copyright (c) Steve Scherf et al.
# Submitted via: ExactAudioCopyFreeDBPlugin 1.0
#
DISCID=f6114813
DTITLE=Various Artist - The Alligator Records 25th Anniversary Collec
DTITLE=tion
DYEAR=1996
DGENRE=Blues
TTITLE0=Koko Taylor - Evil
TTITLE1=Lonnie Brooks - Got Lucky Last Night
TTITLE2=Steady Rollin' Bob Margolin - Blues Lover
TTITLE3=Little Charlie and The Nightcats - I Could Deal With It
TTITLE4=Luther Allison - Cherry Red Wine
TTITLE5=Kathie Webster - Hard Lovin' Mama
TTITLE6=Elvin Bishop - She Puts Me In The Mood
TTITLE7=Carey Bell - Low Down Dirty Shame
TTITLE8=Lucky Peterson - Six O'Clock Blues
TTITLE9=Dave Hole - Keep Your Motor Running
TTITLE10=Corey Harris - Roots Woman
TTITLE11=Michael Hill's Blues Mob - Can't Recall A Time
TTITLE12=Roy Buchanan and Delbert McClinton - Baby, Baby, Baby
TTITLE13=Roy Buchanan - Jack The Ripper
TTITLE14=Sonny Boy Williamson - The Sky Is Crying
TTITLE15=Johnny Winter - Love, Life and Money
TTITLE16=Hound Dog Taylor - Look On Yonder's Wall
TTITLE17=Fenton Robinson - Somebody Loan Me A Dime
TTITLE18=Clarence ''Gatemouth'' Brown - We're Outta Here
EXTD=Year: 1996 [CD 2 from 2]\n\n\n\n\n\n                             
EXTD=                         www.alligator.com
EXTT0=
EXTT1=
EXTT2=
EXTT3=
EXTT4=
EXTT5=
EXTT6=
EXTT7=
EXTT8=
EXTT9=
EXTT10=
EXTT11=
EXTT12=
EXTT13=
EXTT14=
EXTT15=
EXTT16=
EXTT17=
EXTT18=
PLAYORDER=
